<svg xmlns="http://www.w3.org/2000/svg" width="744.094" height="1052.362">
  <path style="fill:none;stroke:#000;stroke-opacity:1" d="M992.562-38.335c-92.05 0-166.656 74.637-166.656 166.688 0 43.473 16.647 83.049 43.906 112.719 20.202-6.123 40.604-11.818 57.219-16.157 48.062-12.551 130.336-33.765 142.219-60.5-3.342 9.283-14.5 34.157-14.5 34.157-15.224 14.852-84.415 31.326-129.97 40.093-14.532 2.797-31.118 6.03-47.937 9.594 29.976 28.93 70.764 46.75 115.72 46.75 92.05 0 166.687-74.605 166.687-166.656 0-27.328-6.593-53.116-18.25-75.875-30.077 4.853-124.963 22.076-149.282 27.562-26.838 6.055-80.825 17.06-91.593 35.625C906.808 98.585 927 53.853 927 53.853c14.48-23.764 78.59-40.765 123.312-53.125 10.43-2.883 22.89-6.421 36-10.219-26.71-18.202-58.99-28.844-93.75-28.844z" transform="translate(-620.53 397.844)"/>
  <path style="fill:none;stroke:#000;stroke-opacity:1" d="M899.546 116.505c-2.997 13.986 42.351 27.307 82.837 40.116 40.486 12.809 57.377 19.678 67.31 26.051 16.1-7.7 20.019-19.31 20.019-19.31 4.495-17.732-35.94-40.256-62.854-50.199-26.915-9.942-32.387-14.497-51.91-24.092-50.947 13.49-55.402 27.434-55.402 27.434z" transform="translate(-620.53 397.844)"/>
</svg>
