<?xml version="1.0" encoding="UTF-8" standalone="no"?>
<!-- Created with Inkscape (http://www.inkscape.org/) -->

<svg
   xmlns:dc="http://purl.org/dc/elements/1.1/"
   xmlns:cc="http://creativecommons.org/ns#"
   xmlns:rdf="http://www.w3.org/1999/02/22-rdf-syntax-ns#"
   xmlns:svg="http://www.w3.org/2000/svg"
   xmlns="http://www.w3.org/2000/svg"
   xmlns:sodipodi="http://sodipodi.sourceforge.net/DTD/sodipodi-0.dtd"
   xmlns:inkscape="http://www.inkscape.org/namespaces/inkscape"
   width="744.09448819"
   height="1052.3622047"
   id="svg2"
   version="1.1"
   inkscape:version="0.48.2 r9819"
   sodipodi:docname="logo_tshirt.svg">
  <defs
     id="defs4" />
  <sodipodi:namedview
     id="base"
     pagecolor="#ffffff"
     bordercolor="#666666"
     borderopacity="1.0"
     inkscape:pageopacity="0.0"
     inkscape:pageshadow="2"
     inkscape:zoom="1.351808"
     inkscape:cx="359.47149"
     inkscape:cy="407.82111"
     inkscape:document-units="px"
     inkscape:current-layer="layer1"
     showgrid="false"
     inkscape:window-width="1286"
     inkscape:window-height="787"
     inkscape:window-x="151"
     inkscape:window-y="24"
     inkscape:window-maximized="0"
     inkscape:snap-grids="false"
     showguides="true"
     inkscape:guide-bbox="true" />
  <metadata
     id="metadata7">
    <rdf:RDF>
      <cc:Work
         rdf:about="">
        <dc:format>image/svg+xml</dc:format>
        <dc:type
           rdf:resource="http://purl.org/dc/dcmitype/StillImage" />
        <dc:title />
      </cc:Work>
    </rdf:RDF>
  </metadata>
  <g
     inkscape:label="Layer 1"
     inkscape:groupmode="layer"
     id="layer1">
    <g
       style="font-size:76.98161316px;font-style:normal;font-variant:normal;font-weight:normal;font-stretch:normal;text-align:start;line-height:125%;letter-spacing:0px;word-spacing:0px;writing-mode:lr-tb;text-anchor:start;fill:#590815;fill-opacity:1;stroke:none;font-family:Corbel;-inkscape-font-specification:Corbel"
       id="text3840">
      <path
         d="m 318.2075,692.01547 c -10e-6,0.97733 0.213,1.77923 0.63901,2.40568 0.42599,0.6265 0.98982,1.14021 1.69149,1.54114 0.7267,0.3759 1.55365,0.68914 2.48085,0.93971 0.95224,0.25061 1.92954,0.47615 2.93192,0.6766 1.37823,0.30073 2.68131,0.63903 3.90922,1.01489 1.22788,0.35085 2.35554,0.88962 3.38298,1.61632 1.05246,0.72673 1.89194,1.71656 2.51845,2.9695 0.65151,1.22791 0.97727,2.83169 0.9773,4.81135 -3e-5,1.80427 -0.35085,3.40805 -1.05248,4.81135 -0.70168,1.37826 -1.69152,2.54351 -2.96951,3.49575 -1.27804,0.92719 -2.80664,1.62884 -4.58582,2.10497 -1.77921,0.50118 -3.73382,0.75177 -5.86383,0.75177 -1.30309,0 -2.49339,-0.0752 -3.57092,-0.22553 -1.0525,-0.1253 -1.99221,-0.30071 -2.81916,-0.52624 -0.80189,-0.20048 -1.49102,-0.41348 -2.06737,-0.63901 -0.57637,-0.22553 -1.05249,-0.43854 -1.42837,-0.63901 l 0,-4.88653 c 1.50354,0.60143 2.99456,1.07755 4.47305,1.42837 1.47848,0.35083 3.10732,0.52625 4.88653,0.52624 1.40329,1e-5 2.66878,-0.12529 3.79646,-0.37588 1.12764,-0.25059 2.09241,-0.61395 2.89432,-1.09007 0.82693,-0.50118 1.45341,-1.11513 1.87944,-1.84185 0.45104,-0.75177 0.67657,-1.6163 0.67659,-2.59362 -2e-5,-1.00235 -0.20049,-1.8293 -0.60142,-2.48085 -0.40096,-0.65153 -0.93973,-1.1903 -1.61631,-1.61631 -0.67661,-0.42599 -1.46598,-0.77682 -2.36809,-1.05249 -0.87708,-0.27563 -1.80427,-0.52622 -2.78156,-0.75177 -1.27803,-0.27564 -2.5811,-0.6014 -3.90922,-0.97731 -1.30308,-0.37587 -2.49339,-0.90211 -3.57092,-1.57872 -1.07755,-0.67658 -1.95462,-1.59124 -2.63121,-2.74397 -0.65154,-1.17776 -0.97731,-2.68131 -0.97731,-4.51065 0,-1.8794 0.3383,-3.50824 1.0149,-4.88652 0.67659,-1.37822 1.59124,-2.51841 2.74397,-3.42057 1.15271,-0.9021 2.49337,-1.57869 4.02199,-2.02979 1.52859,-0.45103 3.1449,-0.67656 4.84894,-0.6766 1.97965,4e-5 3.80896,0.18798 5.48795,0.56383 1.70399,0.37592 3.24513,0.85205 4.6234,1.42837 l 0,4.96171 c -1.50357,-0.57633 -3.03217,-1.03993 -4.58582,-1.39078 -1.52862,-0.37586 -3.10735,-0.57633 -4.73617,-0.60142 -1.37827,3e-5 -2.55604,0.13785 -3.53334,0.41347 -0.97731,0.27568 -1.7792,0.6641 -2.40567,1.16525 -0.62649,0.47615 -1.09008,1.05251 -1.39078,1.72908 -0.27566,0.65157 -0.41349,1.37828 -0.41348,2.18014"
         style=""
         id="path3037" />
    </g>
    <g
       style="font-size:76.98161316px;font-style:normal;font-variant:normal;font-weight:normal;font-stretch:normal;text-align:start;line-height:125%;letter-spacing:0px;word-spacing:0px;writing-mode:lr-tb;text-anchor:start;fill:#590815;fill-opacity:1;stroke:none;font-family:Corbel;-inkscape-font-specification:Corbel"
       id="text3848">
      <path
         d="m 233.97452,718.28436 -5.82624,0 0,-22.96668 c -3e-5,-1.55364 -0.17545,-2.86924 -0.52625,-3.94681 -0.32579,-1.10257 -0.81445,-2.0047 -1.46595,-2.70639 -0.62651,-0.70162 -1.39081,-1.21533 -2.29291,-1.54113 -0.8771,-0.32574 -1.86693,-0.48862 -2.96951,-0.48865 -2.07993,3e-5 -3.97189,0.56386 -5.67589,1.69149 -1.70403,1.10263 -3.23264,2.63123 -4.58582,4.58581 l 0,25.37236 -5.82624,0 0,-35.70924 4.51064,0 1.12766,4.9617 0.11276,0 c 0.65153,-0.82692 1.35318,-1.59122 2.10497,-2.29291 0.77682,-0.72668 1.62883,-1.35315 2.55603,-1.87943 0.95223,-0.55126 1.99218,-0.97727 3.11986,-1.27801 1.12764,-0.30068 2.35554,-0.45103 3.68369,-0.45107 2.65624,4e-5 4.86144,0.63904 6.61561,1.91702 1.75411,1.27805 3.1073,3.01966 4.05958,5.22483 l 0.15035,0 c 1.57869,-2.23023 3.38294,-3.97184 5.41277,-5.22483 2.02975,-1.27798 4.39783,-1.91698 7.10426,-1.91702 1.25291,4e-5 2.58104,0.17545 3.9844,0.52624 1.40326,0.35087 2.6938,1.0024 3.87163,1.95461 1.17773,0.92722 2.15503,2.21777 2.93192,3.87164 0.77678,1.65393 1.16519,3.78395 1.16525,6.39007 l 0,23.9064 -5.78866,0 0,-22.96668 c -5e-5,-1.55364 -0.17546,-2.86924 -0.52624,-3.94681 -0.32582,-1.10257 -0.81447,-2.0047 -1.46596,-2.70639 -0.62652,-0.70162 -1.39083,-1.21533 -2.29291,-1.54113 -0.87711,-0.32574 -1.86695,-0.48862 -2.9695,-0.48865 -2.07995,3e-5 -3.98444,0.56386 -5.71348,1.69149 -1.70406,1.10263 -3.23266,2.63123 -4.58582,4.58581 l 0,25.37236"
         style=""
         id="path3034" />
    </g>
    <g
       style="font-size:76.98161316px;font-style:normal;font-variant:normal;font-weight:normal;font-stretch:normal;text-align:start;line-height:125%;letter-spacing:0px;word-spacing:0px;writing-mode:lr-tb;text-anchor:start;fill:#590815;fill-opacity:1;stroke:none;font-family:Corbel;-inkscape-font-specification:Corbel"
       id="text3852">
      <path
         d="m 279.37521,681.6575 c 1.72906,3e-5 3.38296,0.18798 4.9617,0.56383 1.5787,0.35086 2.93189,0.85204 4.05958,1.50354 l 0,4.84894 c -1.57875,-0.60139 -3.03218,-1.05245 -4.36029,-1.35319 -1.32815,-0.30068 -2.68134,-0.45103 -4.05957,-0.45106 -1.45345,3e-5 -2.89435,0.23809 -4.3227,0.71418 -1.42839,0.47615 -2.7064,1.26552 -3.83405,2.36809 -1.12767,1.07757 -2.04233,2.51847 -2.74397,4.3227 -0.67661,1.77922 -1.0149,3.99695 -1.01489,6.65319 -10e-6,1.92957 0.25058,3.70877 0.75177,5.33759 0.52623,1.62886 1.29053,3.0447 2.29291,4.24753 1.02741,1.17778 2.30542,2.10497 3.83404,2.78156 1.52859,0.65154 3.29526,0.97731 5.30001,0.9773 1.4534,10e-6 2.91936,-0.15035 4.39787,-0.45106 1.47846,-0.32576 2.91936,-0.77683 4.3227,-1.35319 l 0,4.84894 c -0.42603,0.25059 -0.98986,0.50118 -1.69149,0.75177 -0.67662,0.25059 -1.4284,0.46359 -2.25532,0.63901 -0.82698,0.20047 -1.70404,0.35082 -2.63121,0.45106 -0.92721,0.1253 -1.85439,0.18794 -2.78156,0.18794 -2.40569,0 -4.68607,-0.36335 -6.84114,-1.09007 -2.13004,-0.72671 -3.99694,-1.84184 -5.60071,-3.34539 -1.60379,-1.50354 -2.86928,-3.40803 -3.79646,-5.71348 -0.92719,-2.30543 -1.39078,-5.03687 -1.39078,-8.19433 0,-2.35554 0.23806,-4.47303 0.71419,-6.35249 0.50117,-1.87941 1.17777,-3.53331 2.02978,-4.9617 0.85201,-1.42834 1.84184,-2.64371 2.96951,-3.6461 1.15271,-1.00234 2.36807,-1.81676 3.6461,-2.44327 1.30306,-0.6515 2.64372,-1.11509 4.02199,-1.39078 1.37823,-0.30067 2.71889,-0.45103 4.02199,-0.45106"
         style=""
         id="path3031" />
    </g>
    <g
       style="font-size:76.98161316px;font-style:normal;font-variant:normal;font-weight:normal;font-stretch:normal;text-align:start;line-height:125%;letter-spacing:0px;word-spacing:0px;writing-mode:lr-tb;text-anchor:start;fill:#590815;fill-opacity:1;stroke:none;font-family:Corbel;-inkscape-font-specification:Corbel"
       id="text3856">
      <path
         d="m 292.15398,696.8631 16.57661,0 0,5.45036 -16.57661,0 0,-5.45036"
         style=""
         id="path3028" />
    </g>
    <g
       style="font-size:76.98161316px;font-style:normal;font-variant:normal;font-weight:normal;font-stretch:normal;text-align:start;line-height:125%;letter-spacing:0px;word-spacing:0px;writing-mode:lr-tb;text-anchor:start;fill:#590815;fill-opacity:1;stroke:none;font-family:Corbel;-inkscape-font-specification:Corbel"
       id="text3860">
      <path
         d="m 364.48979,718.40544 c -0.50121,0.20047 -1.26551,0.38841 -2.29291,0.56383 -1.02744,0.17541 -2.25534,0.27565 -3.68369,0.30071 -1.87945,0 -3.50829,-0.23806 -4.88653,-0.71419 -1.37826,-0.45106 -2.53098,-1.1026 -3.45816,-1.95461 -0.90213,-0.87706 -1.57873,-1.92955 -2.02978,-3.15745 -0.45108,-1.22789 -0.67661,-2.59361 -0.6766,-4.09716 l 0,-21.72626 -6.87873,0 0,-4.99929 6.87873,0 0,-9.77306 5.82625,0 0,9.77306 10.67518,0 0,4.99929 -10.67518,0 0,20.82413 c -2e-5,0.82696 0.11275,1.59126 0.33829,2.29291 0.25058,0.70166 0.62647,1.31561 1.12766,1.84184 0.52623,0.50119 1.1903,0.90214 1.9922,1.20284 0.80188,0.27566 1.76665,0.41348 2.89433,0.41348 0.77681,0 1.59123,-0.0626 2.44327,-0.18795 0.87704,-0.12529 1.67893,-0.28817 2.40567,-0.48865 l 0,4.88653"
         style=""
         id="path3025" />
    </g>
    <g
       style="font-size:76.98161316px;font-style:normal;font-variant:normal;font-weight:normal;font-stretch:normal;text-align:start;line-height:125%;letter-spacing:0px;word-spacing:0px;writing-mode:lr-tb;text-anchor:start;fill:#590815;fill-opacity:1;stroke:none;font-family:Corbel;-inkscape-font-specification:Corbel"
       id="text3864">
      <path
         d="m 391.051,714.32388 -0.15035,0 c -0.47615,0.60142 -1.07757,1.20284 -1.80426,1.80426 -0.72674,0.57636 -1.56622,1.1026 -2.51844,1.57872 -0.95227,0.45106 -1.99222,0.81442 -3.11986,1.09007 -1.12768,0.27565 -2.33051,0.41348 -3.60851,0.41348 -1.72909,0 -3.32035,-0.26312 -4.77376,-0.78936 -1.42838,-0.50119 -2.66881,-1.24043 -3.72128,-2.21774 -1.02743,-1.00236 -1.82932,-2.21772 -2.40568,-3.6461 -0.57636,-1.42836 -0.86454,-3.04467 -0.86454,-4.84894 0,-1.77918 0.31324,-3.37044 0.93972,-4.77376 0.65153,-1.40329 1.55366,-2.5936 2.70638,-3.57092 1.15271,-0.97729 2.53096,-1.72906 4.13476,-2.25532 1.62883,-0.52622 3.42055,-0.78935 5.37518,-0.78937 1.85436,0.0251 3.5709,0.18797 5.14965,0.48866 1.5787,0.30073 2.98201,0.67661 4.20993,1.12766 l 0.15035,0 0,-2.48086 c -2e-5,-0.97728 -0.0627,-1.84182 -0.18794,-2.59362 -0.12532,-0.75174 -0.33832,-1.41581 -0.63901,-1.9922 -0.65156,-1.2028 -1.69151,-2.19264 -3.11986,-2.9695 -1.42839,-0.80186 -3.35794,-1.20281 -5.78865,-1.20284 -1.80427,3e-5 -3.50829,0.17545 -5.11206,0.52624 -1.57874,0.3258 -3.15746,0.7894 -4.73618,1.39078 l 0,-4.88652 c 0.60141,-0.30068 1.30307,-0.57633 2.10497,-0.82696 0.82694,-0.27561 1.69148,-0.50114 2.59362,-0.67659 0.90211,-0.20044 1.85436,-0.35079 2.85674,-0.45107 1.00235,-0.1002 2.00471,-0.15031 3.00709,-0.15035 3.60849,4e-5 6.55294,0.63904 8.83334,1.91702 2.30541,1.27805 3.95931,2.96954 4.96171,5.07447 0.37585,0.80192 0.63897,1.69152 0.78936,2.6688 0.17538,0.95227 0.26309,2.00475 0.26312,3.15745 l 0,23.83122 -4.88653,0 -0.63901,-3.94681 m -0.30071,-11.72767 c -1.07756,-0.30069 -2.35558,-0.58887 -3.83404,-0.86454 -1.47851,-0.27563 -3.10735,-0.42599 -4.88653,-0.45106 -2.48087,2e-5 -4.42295,0.52626 -5.82624,1.57872 -1.40332,1.0525 -2.10498,2.66881 -2.10497,4.84894 -10e-6,1.10261 0.1754,2.06739 0.52624,2.89433 0.35082,0.82696 0.82694,1.51608 1.42837,2.06738 0.62647,0.52624 1.35318,0.92719 2.18014,1.20284 0.852,0.25059 1.75413,0.37589 2.70639,0.37588 1.25294,10e-6 2.41819,-0.17541 3.49575,-0.52624 1.07752,-0.37588 2.02976,-0.81442 2.85674,-1.3156 0.85198,-0.50118 1.56617,-1.00236 2.14255,-1.50355 0.60139,-0.50117 1.03993,-0.88959 1.3156,-1.16525 l 0,-7.14185"
         style=""
         id="path3022" />
    </g>
    <g
       style="font-size:76.98161316px;font-style:normal;font-variant:normal;font-weight:normal;font-stretch:normal;text-align:start;line-height:125%;letter-spacing:0px;word-spacing:0px;writing-mode:lr-tb;text-anchor:start;fill:#590815;fill-opacity:1;stroke:none;font-family:Corbel;-inkscape-font-specification:Corbel"
       id="text3868">
      <path
         d="m 409.01885,687.52865 0.11277,0 c 0.65152,-0.82692 1.36571,-1.59123 2.14255,-2.29291 0.80188,-0.72668 1.69148,-1.35316 2.6688,-1.87944 0.97729,-0.55126 2.0423,-0.97727 3.19504,-1.27801 1.17775,-0.30068 2.45577,-0.45103 3.83404,-0.45107 1.62882,4e-5 3.15742,0.22557 4.58582,0.6766 1.42834,0.4511 2.66877,1.17781 3.72128,2.18014 1.05245,1.0024 1.8794,2.318 2.48085,3.94681 0.62645,1.60382 0.93968,3.58348 0.93972,5.93901 l 0,23.9064 -5.82625,0 0,-22.96668 c -2e-5,-3.08224 -0.60144,-5.29997 -1.80425,-6.65319 -1.17781,-1.35317 -2.90688,-2.02976 -5.18724,-2.02979 -2.00475,3e-5 -3.94683,0.56386 -5.82625,1.69149 -1.87944,1.10263 -3.49575,2.63123 -4.84893,4.58582 l 0,25.37235 -5.82625,0 0,-35.70924 4.51064,0 1.12766,4.96171"
         style=""
         id="path3019" />
    </g>
    <g
       style="font-size:76.98161316px;font-style:normal;font-variant:normal;font-weight:normal;font-stretch:normal;text-align:start;line-height:125%;letter-spacing:0px;word-spacing:0px;writing-mode:lr-tb;text-anchor:start;fill:#590815;fill-opacity:1;stroke:none;font-family:Corbel;-inkscape-font-specification:Corbel"
       id="text3872">
      <path
         d="m 438.16594,718.35016 0,-7.32979 7.17944,0 0,7.32979 -7.17944,0"
         style=""
         id="path3016" />
    </g>
    <g
       style="font-size:76.98161316px;font-style:normal;font-variant:normal;font-weight:normal;font-stretch:normal;text-align:start;line-height:125%;letter-spacing:0px;word-spacing:0px;writing-mode:lr-tb;text-anchor:start;fill:#590815;fill-opacity:1;stroke:none;font-family:Corbel;-inkscape-font-specification:Corbel"
       id="text3876">
      <path
         d="m 476.3072,700.4749 c -3e-5,-2.20518 -0.27568,-4.15979 -0.82695,-5.86384 -0.52627,-1.72905 -1.27804,-3.18248 -2.25532,-4.36028 -0.95227,-1.20281 -2.09246,-2.10494 -3.42057,-2.70639 -1.32816,-0.62644 -2.78158,-0.93968 -4.36029,-0.93971 -1.57874,3e-5 -3.03217,0.31327 -4.36028,0.93971 -1.32815,0.60145 -2.48087,1.50358 -3.45816,2.70639 -0.95226,1.1778 -1.70403,2.63123 -2.25532,4.36028 -0.52625,1.70405 -0.78938,3.65866 -0.78937,5.86384 -10e-6,2.18016 0.26312,4.13477 0.78937,5.86383 0.55129,1.70403 1.31559,3.14493 2.29291,4.3227 0.97729,1.17778 2.13001,2.07991 3.45815,2.70638 1.32812,0.60143 2.78155,0.90214 4.36029,0.90213 1.5787,10e-6 3.0196,-0.3007 4.3227,-0.90213 1.32811,-0.62647 2.4683,-1.5286 3.42057,-2.70638 0.97728,-1.17777 1.72905,-2.61867 2.25532,-4.3227 0.55127,-1.72906 0.82692,-3.68367 0.82695,-5.86383 m 6.08937,0 c -4e-5,2.80663 -0.40099,5.36266 -1.20284,7.66809 -0.80193,2.30544 -1.94212,4.28511 -3.42057,5.93901 -1.45346,1.62884 -3.22013,2.89433 -5.3,3.79646 -2.07994,0.90212 -4.41043,1.35319 -6.9915,1.35319 -2.65628,0 -5.0369,-0.45107 -7.14185,-1.35319 -2.07992,-0.90213 -3.85911,-2.16762 -5.33759,-3.79646 -1.45344,-1.6539 -2.56857,-3.63357 -3.34539,-5.93901 -0.77684,-2.30543 -1.16525,-4.86146 -1.16525,-7.66809 0,-2.83166 0.40094,-5.40022 1.20284,-7.70568 0.80188,-2.30541 1.92954,-4.28508 3.38298,-5.93901 1.47848,-1.65387 3.25767,-2.93189 5.33759,-3.83405 2.10495,-0.90209 4.44798,-1.35315 7.02908,-1.35319 2.63119,4e-5 4.99927,0.4511 7.10426,1.35319 2.10494,0.90216 3.88413,2.18018 5.3376,3.83405 1.45339,1.65393 2.56852,3.6336 3.34539,5.93901 0.77679,2.30546 1.16521,4.87402 1.16525,7.70568"
         style=""
         id="path3013" />
    </g>
    <g
       style="font-size:76.98161316px;font-style:normal;font-variant:normal;font-weight:normal;font-stretch:normal;text-align:start;line-height:125%;letter-spacing:0px;word-spacing:0px;writing-mode:lr-tb;text-anchor:start;fill:#590815;fill-opacity:1;stroke:none;font-family:Corbel;-inkscape-font-specification:Corbel"
       id="text3880">
      <path
         d="m 506.62789,687.29078 -0.45107,0 c -1.37827,4e-5 -2.73146,0.12533 -4.05957,0.37589 -1.32816,0.25062 -2.58111,0.63904 -3.75887,1.16525 -1.15274,0.50121 -2.20522,1.12769 -3.15745,1.87943 -0.9272,0.7518 -1.70403,1.6414 -2.3305,2.6688 l 0,24.8837 -5.82624,0 0,-35.70924 4.51064,0 1.12766,5.67589 0.11276,0 c 0.57635,-0.92716 1.27801,-1.79169 2.10497,-2.59362 0.85199,-0.80186 1.80424,-1.50351 2.85674,-2.10496 1.05246,-0.60139 2.20518,-1.06498 3.45816,-1.39078 1.25293,-0.3508 2.56853,-0.52621 3.94681,-0.52625 0.25057,4e-5 0.50116,0.0126 0.75177,0.0376 0.27563,4e-5 0.51369,0.0126 0.71419,0.0376 l 0,5.60071"
         style=""
         id="path3010" />
    </g>
    <g
       style="font-size:76.98161316px;font-style:normal;font-variant:normal;font-weight:normal;font-stretch:normal;text-align:start;line-height:125%;letter-spacing:0px;word-spacing:0px;writing-mode:lr-tb;text-anchor:start;fill:#590815;fill-opacity:1;stroke:none;font-family:Corbel;-inkscape-font-specification:Corbel"
       id="text3884">
      <path
         d="m 512.50963,700.59241 c -10e-6,2.80663 0.33828,5.09954 1.01489,6.87872 0.67658,1.77921 1.52859,3.16999 2.55603,4.17235 1.05247,0.97731 2.19266,1.6539 3.42057,2.02979 1.22788,0.35083 2.39313,0.52624 3.49575,0.52624 1.80423,0 3.49572,-0.36335 5.07447,-1.09007 1.5787,-0.72671 2.96948,-1.71655 4.17234,-2.96951 l 0,-18.68157 c -0.3258,-0.45104 -0.77686,-0.96475 -1.35319,-1.54114 -0.57639,-0.57633 -1.25298,-1.10257 -2.02979,-1.57872 -0.7518,-0.50115 -1.61634,-0.91463 -2.59362,-1.24043 -0.97733,-0.3508 -2.04234,-0.52621 -3.19504,-0.52624 -1.72909,3e-5 -3.2577,0.35086 -4.58582,1.05248 -1.30308,0.67663 -2.40568,1.62887 -3.3078,2.85674 -0.87708,1.22793 -1.54115,2.70641 -1.9922,4.43547 -0.45107,1.70404 -0.6766,3.596 -0.67659,5.67589 m 9.81064,-19.01987 c 1.55364,0.0251 2.90684,0.22556 4.05958,0.60141 1.15269,0.37593 2.14253,0.85205 2.9695,1.42837 0.82693,0.55134 1.47846,1.10264 1.95461,1.65391 0.50116,0.55133 0.83946,0.98986 1.0149,1.3156 l 0.15035,0 1.20284,-4.05958 4.39788,0 0,37.81421 c -4e-5,2.7565 -0.4511,5.14964 -1.3532,7.17944 -0.90216,2.05484 -2.16764,3.75885 -3.79645,5.11206 -1.62887,1.35318 -3.59601,2.35554 -5.90143,3.00709 -2.2804,0.67658 -4.81137,1.01488 -7.59291,1.0149 -2.35557,-2e-5 -4.46053,-0.21302 -6.3149,-0.63901 -1.85438,-0.40096 -3.30781,-0.88961 -4.36028,-1.46596 l 0,-4.92411 c 0.852,0.35081 1.67895,0.63899 2.48085,0.86454 0.80188,0.25057 1.62883,0.45105 2.48085,0.60141 0.852,0.17541 1.71654,0.3007 2.59362,0.37589 0.90212,0.0752 1.89195,0.11275 2.96951,0.11277 4.18485,-2e-5 7.39241,-0.97732 9.6227,-2.93192 2.23023,-1.95462 3.34536,-4.93665 3.34539,-8.9461 l 0,-4.77377 -0.11276,0 c -1.27805,1.40332 -2.76906,2.46833 -4.47306,3.19504 -1.67898,0.70166 -3.60853,1.05248 -5.78865,1.05248 -1.00239,0 -2.07993,-0.11276 -3.23263,-0.33829 -1.15273,-0.22554 -2.30545,-0.60142 -3.45816,-1.12766 -1.15273,-0.5513 -2.25533,-1.26549 -3.3078,-2.14256 -1.05249,-0.90212 -1.97968,-2.01725 -2.78156,-3.34539 -0.8019,-1.35319 -1.45344,-2.94444 -1.95462,-4.77376 -0.47612,-1.82931 -0.71418,-3.9468 -0.71418,-6.35249 0,-3.33284 0.45106,-6.21464 1.35319,-8.6454 0.90212,-2.45576 2.09243,-4.48555 3.57093,-6.08936 1.47847,-1.60375 3.16996,-2.79406 5.07447,-3.57093 1.90448,-0.80185 3.87161,-1.2028 5.90142,-1.20283"
         style=""
         id="path3007" />
    </g>
    <path
       style="fill:#b2001d;fill-opacity:1;stroke:none"
       d="m 372.6013,315.72244 c -92.0507,0 -166.6563,74.63677 -166.6563,166.68749 0,43.47269 16.6475,83.04885 43.9063,112.71875 20.2017,-6.12243 40.6038,-11.81719 57.2187,-16.15625 48.0619,-12.5516 130.3366,-33.765 142.2188,-60.5 -3.3418,9.283 -14.5,34.15625 -14.5,34.15625 -15.2241,14.8528 -84.4149,31.32625 -129.9688,40.09375 -14.5327,2.79703 -31.1192,6.02918 -47.9374,9.59375 29.9752,28.9294 70.7641,46.75 115.7187,46.75 92.0507,0 166.6875,-74.60553 166.6875,-166.65625 0,-27.32756 -6.5929,-53.11608 -18.25,-75.875 -30.0766,4.85263 -124.963,22.07617 -149.2812,27.5625 -26.8387,6.0549 -80.8256,17.059 -91.5938,35.625 6.6837,-17.0807 26.875,-61.8125 26.875,-61.8125 14.4815,-23.7644 78.5916,-40.76539 123.3125,-53.12499 10.4308,-2.88279 22.8898,-6.42121 36,-10.21875 -26.7101,-18.20252 -58.9893,-28.84375 -93.75,-28.84375 z"
       id="path3042"
       inkscape:connector-curvature="0"
       inkscape:export-filename="/Users/Betancourt/Documents/Research/Code/Visualizations/stan_logo/print/final/logo.png"
       inkscape:export-xdpi="90"
       inkscape:export-ydpi="90" />
    <path
       inkscape:export-ydpi="90"
       inkscape:export-xdpi="90"
       inkscape:export-filename="/Users/Betancourt/Documents/Research/Code/Visualizations/stan_logo/print/final/logo.png"
       style="fill:#590815;fill-opacity:1;stroke:none"
       d="m 280.03096,470.33945 c -2.9969,13.9854 41.90564,27.52928 82.39174,40.33828 40.486,12.809 57.53265,19.73022 67.46465,26.10363 16.1004,-7.70012 19.79008,-19.21588 19.79008,-19.21588 4.4953,-17.7314 -35.86583,-40.40285 -62.78063,-50.34525 -26.9147,-9.9424 -32.90648,-14.66511 -52.42898,-24.2599 -51.39296,13.60147 -54.43686,27.37912 -54.43686,27.37912 z"
       id="path3044"
       inkscape:connector-curvature="0"
       sodipodi:nodetypes="czcczcc" />
  </g>
</svg>
