<?xml version="1.0" encoding="UTF-8" standalone="no"?>
<!-- Created with Inkscape (http://www.inkscape.org/) -->

<svg
   xmlns:dc="http://purl.org/dc/elements/1.1/"
   xmlns:cc="http://creativecommons.org/ns#"
   xmlns:rdf="http://www.w3.org/1999/02/22-rdf-syntax-ns#"
   xmlns:svg="http://www.w3.org/2000/svg"
   xmlns="http://www.w3.org/2000/svg"
   xmlns:sodipodi="http://sodipodi.sourceforge.net/DTD/sodipodi-0.dtd"
   xmlns:inkscape="http://www.inkscape.org/namespaces/inkscape"
   width="744.09448819"
   height="1052.3622047"
   id="svg2"
   version="1.1"
   inkscape:version="0.48.2 r9819"
   sodipodi:docname="logo_stencil.svg">
  <defs
     id="defs4" />
  <sodipodi:namedview
     id="base"
     pagecolor="#ffffff"
     bordercolor="#666666"
     borderopacity="1.0"
     inkscape:pageopacity="0.0"
     inkscape:pageshadow="2"
     inkscape:zoom="0.33886601"
     inkscape:cx="707.31392"
     inkscape:cy="583.12839"
     inkscape:document-units="px"
     inkscape:current-layer="layer1"
     showgrid="false"
     inkscape:window-width="1286"
     inkscape:window-height="787"
     inkscape:window-x="124"
     inkscape:window-y="0"
     inkscape:window-maximized="0"
     inkscape:snap-grids="false"
     showguides="true"
     inkscape:guide-bbox="true" />
  <metadata
     id="metadata7">
    <rdf:RDF>
      <cc:Work
         rdf:about="">
        <dc:format>image/svg+xml</dc:format>
        <dc:type
           rdf:resource="http://purl.org/dc/dcmitype/StillImage" />
        <dc:title />
      </cc:Work>
    </rdf:RDF>
  </metadata>
  <g
     inkscape:label="Layer 1"
     inkscape:groupmode="layer"
     id="layer1">
    <g
       id="g3144"
       transform="translate(-620.53045,397.84379)">
      <path
         inkscape:export-ydpi="90"
         inkscape:export-xdpi="90"
         inkscape:export-filename="/Users/Betancourt/Documents/Research/Code/Visualizations/stan_logo/print/colors/logo_stencil.png"
         style="fill:none;stroke:#000000;stroke-opacity:1"
         d="m 992.56209,-38.334574 c -92.0507,0 -166.6563,74.636778 -166.6563,166.687494 0,43.47269 16.6475,83.04885 43.9063,112.71875 20.2017,-6.12243 40.6038,-11.81719 57.2187,-16.15625 48.0619,-12.5516 130.33661,-33.765 142.21881,-60.5 -3.3418,9.283 -14.5,34.15625 -14.5,34.15625 -15.2241,14.8528 -84.41491,31.32625 -129.96881,40.09375 -14.5327,2.79703 -31.1192,6.02918 -47.9374,9.59375 29.9752,28.9294 70.7641,46.75 115.7187,46.75 92.05071,0 166.68751,-74.60553 166.68751,-166.65625 0,-27.32756 -6.5929,-53.11608 -18.25,-75.874996 -30.0766,4.85263 -124.963,22.076166 -149.28121,27.562496 -26.8387,6.0549 -80.8256,17.059 -91.5938,35.625 6.6837,-17.0807 26.875,-61.812496 26.875,-61.812496 14.4815,-23.7644 78.59161,-40.765398 123.31251,-53.124998 10.4308,-2.88279 22.8898,-6.42121 36,-10.21875 -26.7101,-18.20252 -58.9893,-28.84375 -93.75001,-28.84375 z"
         id="path3045"
         inkscape:connector-curvature="0" />
      <path
         inkscape:export-ydpi="90"
         inkscape:export-xdpi="90"
         inkscape:export-filename="/Users/Betancourt/Documents/Research/Code/Visualizations/stan_logo/print/colors/logo_stencil.png"
         style="fill:none;stroke:#000000;stroke-opacity:1"
         d="m 899.54639,116.50512 c -2.9969,13.9854 42.351,27.3066 82.8371,40.1156 40.48601,12.809 57.37681,19.67827 67.30881,26.05168 16.1004,-7.70012 20.0194,-19.31087 20.0194,-19.31087 4.4953,-17.7314 -35.9393,-40.25591 -62.8541,-50.19831 -26.91471,-9.9424 -32.38641,-14.49735 -51.90891,-24.09214 -50.9476,13.49013 -55.4023,27.43404 -55.4023,27.43404 z"
         id="path3047"
         inkscape:connector-curvature="0"
         sodipodi:nodetypes="czcczcc" />
    </g>
  </g>
</svg>
