<svg xmlns="http://www.w3.org/2000/svg" width="744.094" height="1052.362">
<text
style="font-size:85px;font-style:normal;font-variant:normal;font-weight:400;font-stretch:normal;text-align:start;line-height:125%;letter-spacing:0;word-spacing:0;writing-mode:lr-tb;text-anchor:start;fill:#052744;fill-opacity:1;stroke:none;font-family:Liberation,Arial,sans-serif" xml:space="preserve" transform="matrix(1.00673 0 0 .99332 1.068 0)">
<tspan y="713.426" x="192">C</tspan></text>
<text xml:space="preserve" style="font-size:80px;font-style:normal;font-variant:normal;font-weight:400;font-stretch:normal;text-align:start;line-height:125%;letter-spacing:0;word-spacing:0;writing-mode:lr-tb;text-anchor:start;fill:#052744;fill-opacity:1;stroke:none;font-family:Liberation,Arial,sans-serif" x="247.919" y="713.254" transform="matrix(1.00673 0 0 .99332 1.068 0)">
<tspan x="247" y="713.254">m</tspan></text>
<text 
style="font-size:80px;font-style:normal;font-variant:normal;font-weight:400;font-stretch:normal;text-align:start;line-height:125%;letter-spacing:0;word-spacing:0;writing-mode:lr-tb;text-anchor:start;fill:#052744;fill-opacity:1;stroke:none;font-family:Liberation,Arial,sans-serif" xml:space="preserve" transform="matrix(1.00673 0 0 .99332 1.068 0)">
<tspan y="713.34" x="309">d</tspan></text>

<text xml:space="preserve" style="font-size:85px;font-style:normal;font-variant:normal;font-weight:400;font-stretch:normal;text-align:start;line-height:125%;letter-spacing:0;word-spacing:0;writing-mode:lr-tb;text-anchor:start;fill:#052744;fill-opacity:1;stroke:none;font-family:Liberation,Arial,sans-serif" x="369.057" y="713.685" transform="matrix(1.00673 0 0 .99332 1.068 0)">
<tspan x="353" y="713.685">S</tspan></text>
<text
style="font-size:80px;font-style:normal;font-variant:normal;font-weight:400;font-stretch:normal;text-align:start;line-height:125%;letter-spacing:0;word-spacing:0;writing-mode:lr-tb;text-anchor:start;fill:#052744;fill-opacity:1;stroke:none;font-family:Liberation,Arial,sans-serif" xml:space="preserve" transform="matrix(1.00673 0 0 .99332 1.068 0)">
<tspan y="713.685" x="406">t</tspan></text>
<text xml:space="preserve" style="font-size:80px;font-style:normal;font-variant:normal;font-weight:400;font-stretch:normal;text-align:start;line-height:125%;letter-spacing:0;word-spacing:0;writing-mode:lr-tb;text-anchor:start;fill:#052744;fill-opacity:1;stroke:none;font-family:Liberation,Arial,sans-serif" x="448.027" y="713.685" transform="matrix(1.00673 0 0 .99332 1.068 0)">
<tspan x="428" y="713.685">a</tspan></text>
<text
style="font-size:80px;font-style:normal;font-variant:normal;font-weight:400;font-stretch:normal;text-align:start;line-height:125%;letter-spacing:0;word-spacing:0;writing-mode:lr-tb;text-anchor:start;fill:#052744;fill-opacity:1;stroke:none;font-family:Liberation,Arial,sans-serif" xml:space="preserve" transform="matrix(1.00673 0 0 .99332 1.068 0)">
<tspan y="713.825" x="468">n</tspan></text>
<circle cx="371.25" cy="450.5" r="166" fill="#F2E5BD" />
<path style="fill:#3e8ebc;fill-opacity:1;stroke:none" d="M372.031 283.938c-92.05 0-166.656 74.637-166.656 166.688 0 43.473 16.648 83.049 43.906 112.719 20.202-6.123 40.604-11.818 57.219-16.157 48.062-12.551 130.337-33.765 142.219-60.5-3.342 9.283-14.5 34.157-14.5 34.157-15.224 14.852-84.415 31.326-129.969 40.093-14.533 2.797-31.12 6.03-47.937 9.594 29.975 28.93 70.764 46.75 115.718 46.75 92.051 0 166.688-74.605 166.688-166.656 0-27.328-6.593-53.116-18.25-75.875-30.077 4.853-124.963 22.076-149.281 27.562-26.84 6.055-80.826 17.06-91.594 35.625 6.683-17.08 26.875-61.812 26.875-61.812C320.95 352.362 385.06 335.36 429.78 323c10.431-2.883 22.89-6.421 36-10.219-26.71-18.202-58.989-28.844-93.75-28.844z"/>
<path style="fill:#052744;fill-opacity:1;stroke:none" d="M279.461 438.555c-2.997 13.986 41.906 27.53 82.392 40.339 40.486 12.809 57.532 19.73 67.464 26.103 16.1-7.7 19.79-19.216 19.79-19.216 4.496-17.73-35.865-40.402-62.78-50.345-26.915-9.942-32.907-14.665-52.43-24.26-51.392 13.602-54.436 27.38-54.436 27.38z"/></svg>
