<?xml version="1.0" encoding="UTF-8" standalone="no"?>
<svg
   xmlns:osb="http://www.openswatchbook.org/uri/2009/osb"
   xmlns:dc="http://purl.org/dc/elements/1.1/"
   xmlns:cc="http://creativecommons.org/ns#"
   xmlns:rdf="http://www.w3.org/1999/02/22-rdf-syntax-ns#"
   xmlns:svg="http://www.w3.org/2000/svg"
   xmlns="http://www.w3.org/2000/svg"
   xmlns:sodipodi="http://sodipodi.sourceforge.net/DTD/sodipodi-0.dtd"
   xmlns:inkscape="http://www.inkscape.org/namespaces/inkscape"
   inkscape:export-ydpi="320"
   inkscape:export-xdpi="320"
   inkscape:export-filename="/Users/daniel/stan-dev/logos/stancon_youtube.png"
   version="1.1"
   id="svg2"
   inkscape:version="1.0 (4035a4f, 2020-05-01)"
   sodipodi:docname="stancon_youtube.svg"
   x="0px"
   y="0px"
   width="1280"
   height="720"
   viewBox="0 0 1280 720"
   enable-background="new 0 0 744.094 1052.363"
   xml:space="preserve"><metadata
     id="metadata71"><rdf:RDF><cc:Work
         rdf:about=""><dc:format>image/svg+xml</dc:format><dc:type
           rdf:resource="http://purl.org/dc/dcmitype/StillImage" /><dc:title></dc:title></cc:Work></rdf:RDF></metadata><defs
     id="defs69"><linearGradient
       osb:paint="solid"
       id="linearGradient3500"><stop
         id="stop3498"
         offset="0"
         style="stop-color:#ffffff;stop-opacity:1;" /></linearGradient></defs><sodipodi:namedview
     inkscape:pagecheckerboard="true"
     borderopacity="1.0"
     pagecolor="#ffffff"
     bordercolor="#666666"
     inkscape:zoom="0.36158922"
     id="base"
     inkscape:cx="642.35316"
     inkscape:guide-bbox="true"
     inkscape:pageshadow="2"
     showguides="true"
     inkscape:cy="573.70172"
     inkscape:pageopacity="0.0"
     inkscape:window-maximized="0"
     inkscape:snap-grids="false"
     inkscape:window-x="609"
     inkscape:window-y="23"
     inkscape:window-width="1105"
     inkscape:window-height="1005"
     inkscape:document-units="px"
     inkscape:current-layer="layer2"
     showgrid="false"
     inkscape:document-rotation="0"
     inkscape:snap-text-baseline="false" /><g
     inkscape:label="Path"
     id="layer1"
     inkscape:groupmode="layer" /><g
     inkscape:groupmode="layer"
     id="layer2"
     inkscape:label="StanLogoBlue"
     style="display:inline"><g
       style="display:inline"
       inkscape:groupmode="layer"
       id="layer4"
       inkscape:label="Cicle" /><g
       inkscape:groupmode="layer"
       id="layer3"
       inkscape:label="text"
       style="display:inline" /><g
       transform="matrix(1.337346,0,0,1.337346,-252.00979,32.35023)"
       id="g922"><g
         style="display:inline"
         transform="translate(309.00001,-13.7378)"
         id="g3790"><text
           id="text27"
           y="277.0322"
           x="585.22107"
           style="font-style:normal;font-variant:normal;font-weight:normal;font-stretch:normal;font-size:106.062px;line-height:0.9;font-family:Futura;-inkscape-font-specification:'Futura, Normal';font-variant-ligatures:normal;font-variant-caps:normal;font-variant-numeric:normal;font-variant-east-asian:normal;text-align:center;letter-spacing:-3.97732px;text-anchor:middle;display:inline;fill:#2384a3;fill-opacity:1;stroke:none;stroke-width:0.662887"
           xml:space="preserve"><tspan
             sodipodi:role="line"
             id="tspan3652"
             x="583.23242"
             y="277.0322">StanCon</tspan></text><text
           xml:space="preserve"
           style="font-style:normal;font-variant:normal;font-weight:normal;font-stretch:normal;font-size:106.062px;line-height:0.9;font-family:Futura;-inkscape-font-specification:'Futura, Normal';font-variant-ligatures:normal;font-variant-caps:normal;font-variant-numeric:normal;font-variant-east-asian:normal;text-align:center;letter-spacing:-3.97732px;text-anchor:middle;display:inline;fill:#2384a3;fill-opacity:1;stroke:none;stroke-width:0.662887"
           x="518.94269"
           y="376.66315"
           id="text27-9"><tspan
             sodipodi:role="line"
             id="tspan3672"
             x="516.95404"
             y="376.66315">2020</tspan></text></g><g
         transform="matrix(0.48716888,0,0,0.48716888,261.20569,118.10672)"
         id="g3612"><g
           id="g1511"
           transform="matrix(2.0706705,0,0,2.0706705,-14.566676,-1003.2442)"
           style="fill:#b3b3b3;fill-opacity:1"><g
             id="g1509"
             style="fill:#b3b3b3;fill-opacity:1"><path
               d="m 143.14844,538.08398 c -0.78564,0.77812 -1.63358,1.55253 -1.97052,2.64346 -6.53854,13.82262 -12.48292,27.90428 -18.54273,41.96302 -2.72077,6.40428 -5.49607,12.79197 -8.12204,19.23211 -0.65031,3.28449 1.18421,6.48681 3.49376,8.6854 4.18148,4.1779 9.53246,6.87804 14.77554,9.46759 9.27529,4.42884 18.88555,7.81975 28.55987,11.16363 18.36159,6.20637 36.92111,11.80655 55.37924,17.70854 11.62515,3.70764 23.26019,7.49052 34.44055,12.40969 5.32932,2.43268 10.65339,5.09804 15.14145,8.91669 2.21786,1.98232 4.34038,4.40932 4.91836,7.41431 0.34246,1.73819 0.0533,3.54382 -0.60386,5.16921 -0.1369,0.72439 -0.0132,1.46167 10e-4,2.1912 0.54371,-0.0634 0.8496,-0.67064 1.2832,-0.9668 0.9495,-0.88883 1.17948,-2.24211 1.78827,-3.35054 4.85015,-10.79725 9.26273,-21.78767 13.55967,-32.81301 1.07508,-4.42538 -0.59605,-9.04083 -3.14187,-12.65176 -4.31783,-6.2917 -10.4552,-11.02385 -16.65724,-15.33508 -10.03276,-6.84277 -20.90096,-12.31362 -32.01526,-17.21481 -8.67633,-3.79169 -17.65446,-6.80956 -26.39194,-10.48383 -13.6285,-5.65464 -27.03674,-11.95724 -39.66583,-19.61656 -6.73201,-4.14576 -13.27877,-8.7274 -18.84157,-14.38032 -2.99259,-3.12374 -5.7115,-6.70528 -6.99775,-10.8879 -0.6843,-2.33041 -0.67057,-4.8347 -0.0546,-7.17442 0.0694,-0.8008 -0.0146,-1.60392 -0.0506,-2.40427 -0.0951,0.10482 -0.1901,0.20964 -0.28515,0.31445 z"
               style="fill:#b3b3b3;fill-opacity:1"
               id="path1503" /><path
               d="m 414.74805,437.89844 c -5.79088,2.50932 -11.59638,4.99802 -17.56346,7.06516 -16.89312,6.08109 -34.035,11.44497 -51.18973,16.72599 -31.52575,9.67954 -63.25128,18.74763 -95.03385,27.50535 -21.93671,6.0958 -43.86582,12.40832 -65.07213,20.75387 -9.36895,3.72549 -18.58762,7.83395 -27.20752,13.12538 -6.26319,3.86655 -12.38676,8.33956 -16.66574,14.42776 -1.66899,2.40902 -2.53624,5.24831 -3.82829,7.85856 -8.01322,17.98519 -16.08915,35.96347 -23.51741,54.17855 -0.5867,1.16879 -0.59328,2.47162 -0.66992,3.7461 1.00542,-0.83469 2.0265,-1.67791 2.68059,-2.82881 3.69652,-5.14061 9.25833,-8.48161 14.75022,-11.40439 9.65861,-5.02991 20.06177,-8.40217 30.45924,-11.53048 16.74229,-4.92308 33.82556,-8.53605 50.85012,-12.32207 30.19486,-6.50741 60.45924,-12.70511 90.7188,-18.89496 29.66307,-6.04278 59.32962,-12.08245 89.08209,-17.66566 3.27687,-0.58968 6.55773,-1.15884 9.85152,-1.64465 -1.65283,-12.04803 -2.37327,-24.22647 -2.19305,-36.3855 0.20918,-10.23142 1.08329,-20.5141 3.58364,-30.46123 1.46144,-5.6137 3.43926,-11.16669 6.52738,-16.10444 1.36682,-2.12474 2.94178,-4.12847 4.4375,-6.14453 z"
               style="fill:#b3b3b3;fill-opacity:1"
               id="path1505" /><path
               d="m 286.70117,648.24023 c -0.75788,0.64953 -1.59324,1.28485 -1.908,2.27488 -2.76753,5.27733 -7.40585,9.24484 -12.14839,12.7044 -8.59566,6.16384 -18.20978,10.71151 -27.88697,14.89572 -16.84618,7.16284 -34.30898,12.72918 -51.83358,17.96053 -21.04339,6.2224 -42.34549,11.52263 -63.52544,17.25867 -27.64781,7.5477 -55.161792,15.69274 -82.27507,25.01677 -11.751913,4.09383 -23.432651,8.37028 -34.705014,13.63976 -4.0666395,1.93588 -8.0290716,3.98841 -11.61597162,6.74732 -0.75915473,0.68965 -1.41591969,1.55516 -1.90234378,2.42383 1.5230929,-0.17605 3.0106602,-0.58364 4.3651157,-1.30798 12.5986087,-5.50481 25.8447777,-9.30845 39.0764027,-12.94674 21.266824,-5.72873 42.808488,-10.37466 64.372241,-14.83279 16.39921,-3.36129 32.89533,-6.43816 49.26732,-9.7702 22.13888,-4.56435 44.1712,-9.71283 65.84733,-15.98763 11.74272,-3.43485 23.43365,-7.15662 34.69027,-12.09057 4.65942,-2.06291 9.15932,-4.27008 13.28127,-7.32379 1.28533,-1.00764 2.83887,-1.949 3.30188,-3.62641 4.77357,-10.85047 9.64058,-21.67129 13.86137,-32.75144 0.1956,-0.83846 0.05,-1.70281 0.013,-2.54995 -0.0918,0.0885 -0.18359,0.17708 -0.27539,0.26562 z"
               style="fill:#b3b3b3;fill-opacity:1"
               id="path1507" /></g></g><g
           transform="matrix(0.97544693,0,0,0.97544693,-55.210795,-114.43032)"
           id="g126"><circle
             r="350.26062"
             cy="400.03421"
             cx="483.23999"
             fill="#46c9e8"
             inkscape:export-ydpi="90"
             inkscape:export-xdpi="90"
             inkscape:export-filename="/Users/Betancourt/Documents/Research/Code/Visualizations/stan_logo/print/logo.png"
             id="path3954"
             style="display:inline;mix-blend-mode:normal;stroke-width:8.40407" /><g
             id="g1367"
             transform="matrix(2.1227916,0,0,2.1227916,41.667176,-911.18634)"><g
               id="g1047"><path
                 d="m 115.481,602.009 c -2.997,13.986 42.351,27.309 82.837,40.117 40.486,12.809 80.609,23.971 73.117,41.203 5.495,-11.488 14.853,-35.533 14.853,-35.533 4.495,-17.729 -36.581,-39.186 -63.496,-49.129 -26.915,-9.941 -87.185,-35.961 -80.192,-58.688 -7.241,14.735 -27.119,62.03 -27.119,62.03 z"
                 fill="#2384a3"
                 inkscape:export-ydpi="90"
                 inkscape:export-xdpi="90"
                 inkscape:export-filename="/Users/Betancourt/Documents/Research/Code/Visualizations/stan_logo/print/logo.png"
                 sodipodi:nodetypes="czcczcc"
                 inkscape:connector-curvature="0"
                 id="path3976" /><path
                 d="m 115.064,601.162 c 6.684,-17.082 26.875,-61.807 26.875,-61.807 14.482,-23.767 78.581,-40.759 123.302,-53.117 44.721,-12.359 125.086,-36.039 146.621,-46.064 -19.682,24.507 -10.556,86.007 -10.556,86.007 -16.709,2.229 -167.806,33.305 -194.644,39.357 -26.837,6.055 -80.829,17.057 -91.598,35.624 z"
                 fill="#ffffff"
                 inkscape:export-ydpi="90"
                 inkscape:export-xdpi="90"
                 inkscape:export-filename="/Users/Betancourt/Documents/Research/Code/Visualizations/stan_logo/print/logo.png"
                 sodipodi:nodetypes="cczcczc"
                 inkscape:connector-curvature="0"
                 id="path3978" /><path
                 d="m 1.001,759.82 c 15.224,-12.996 94.896,-36.834 142.958,-49.387 48.062,-12.551 130.333,-33.787 142.215,-60.523 -3.342,9.283 -14.481,34.162 -14.481,34.162 -15.224,14.852 -84.408,31.334 -129.961,40.102 C 96.177,732.941 30.335,746.082 1.001,759.82 Z"
                 fill="#ffffff"
                 inkscape:export-ydpi="90"
                 inkscape:export-xdpi="90"
                 inkscape:export-filename="/Users/Betancourt/Documents/Research/Code/Visualizations/stan_logo/print/logo.png"
                 sodipodi:nodetypes="czcczc"
                 inkscape:connector-curvature="0"
                 id="path3980" /></g></g></g></g></g></g></svg>
