<?xml version="1.0" encoding="utf-8" standalone="yes"?>
<!DOCTYPE svg PUBLIC "-//W3C//DTD SVG 1.1//EN" "http://www.w3.org/Graphics/SVG/1.1/DTD/svg11.dtd">
<!-- Generator: Adobe Illustrator 15.0.0, SVG Export Plug-In . SVG Version: 6.00 Build 0)  --><svg xmlns:dc="http://purl.org/dc/elements/1.1/" xmlns:svg="http://www.w3.org/2000/svg" xmlns:rdf="http://www.w3.org/1999/02/22-rdf-syntax-ns#" xmlns:sodipodi="http://sodipodi.sourceforge.net/DTD/sodipodi-0.dtd" xmlns:inkscape="http://www.inkscape.org/namespaces/inkscape" xmlns:cc="http://creativecommons.org/ns#" xmlns="http://www.w3.org/2000/svg" xmlns:xlink="http://www.w3.org/1999/xlink" id="svg2" style="zoom: 0.5;" xml:space="preserve" inkscape:version="0.48.2 r9819" x="0px" version="1.1" enable-background="new 0 0 744.094 1052.363" y="0px" width="1200px" visibility="visible" height="1200px" viewBox="0 0 600 600" cursor="default" sodipodi:docname="logo_v2.svg"><defs id="svg_document_defs"><style id="Volkhov_Google_Webfont_import">@import url(https://fonts.googleapis.com/css?family=Volkhov);</style><style id="Volkhov_Google_Webfont_import">@import url(https://fonts.googleapis.com/css?family=Volkhov);</style></defs><text stroke="none" style="outline-style: none;" id="text2" stroke-width="1px" x="301.000977px" text-rendering="geometricPrecision" font-family="Volkhov" fill="#2384A3" font-size="120px" y="544.000793px" transform="" text-anchor="middle" visibility="visible">2020
</text><sodipodi:namedview borderopacity="1.0" inkscape:zoom="0.22" inkscape:cy="466.41118" inkscape:document-units="px" inkscape:cx="735.06873" showguides="true" inkscape:window-height="787" visibility="visible" inkscape:snap-grids="false" inkscape:window-width="1286" id="base" showgrid="false" inkscape:guide-bbox="true" inkscape:pageopacity="0.0" inkscape:pageshadow="2" bordercolor="#666666" inkscape:current-layer="layer1" inkscape:window-maximized="0" inkscape:window-y="0" pagecolor="#ffffff" inkscape:window-x="127"></sodipodi:namedview><g visibility="visible" id="layer1" inkscape:label="Layer 1" inkscape:groupmode="layer"><path id="path3954" fill="#46C9E8" inkscape:export-filename="/Users/Betancourt/Documents/Research/Code/Visualizations/stan_logo/print/logo.png" inkscape:export-ydpi="90" sodipodi:type="arc" sodipodi:cx="667.12512" d="M468.066406,189.915955 c0,92.055 -74.623,166.676 -166.673,166.676 c-92.05,0 -166.673,-74.621 -166.673,-166.676 c0,-92.05 74.622,-166.671 166.673,-166.671 C393.444458,23.24514 468.066406,97.865784 468.066406,189.915955 L468.066406,189.915955  z " sodipodi:cy="1428.0276" visibility="visible" sodipodi:rx="41.677601" sodipodi:ry="41.677601" inkscape:export-xdpi="90"></path><path id="path1" fill="#46C9E8" inkscape:export-filename="/Users/Betancourt/Documents/Research/Code/Visualizations/stan_logo/print/logo.png" inkscape:export-ydpi="90" sodipodi:type="arc" sodipodi:cx="667.12512" d="M-11255.394531,31.608353 c0,92.055 -74.623,166.676 -166.673,166.676 c-92.05,0 -166.673,-74.621 -166.673,-166.676 c0,-92.05 74.622,-166.671 166.673,-166.671 C-11330.015625,-135.062469 -11255.394531,-60.441818 -11255.394531,31.608353 L-11255.394531,31.608353  z " visibility="visible" sodipodi:cy="1428.0276" sodipodi:rx="41.677601" sodipodi:ry="41.677601" inkscape:export-xdpi="90"></path><text stroke="none" style="outline-style:none;" id="text1" stroke-width="1px" x="299.346558px" text-rendering="geometricPrecision" font-family="Volkhov" fill="#2384A3" font-size="140px" y="449.222168px" transform="" text-anchor="middle" visibility="visible">StanCon</text><path inkscape:connector-curvature="0" sodipodi:nodetypes="czcczcc" inkscape:export-xdpi="90" id="path3976" d="M208.366394,178.073914 c-2.997,13.986 42.351,27.309 82.837,40.117 c40.486,12.809 80.609,23.971 73.117,41.203 c5.495,-11.488 14.853,-35.533 14.853,-35.533 c4.495,-17.729 -36.581,-39.186 -63.496,-49.129 c-26.915,-9.941 -87.185,-35.961 -80.192,-58.688 C228.244385,130.778793 208.366394,178.073914 208.366394,178.073914 L208.366394,178.073914  z " inkscape:export-filename="/Users/Betancourt/Documents/Research/Code/Visualizations/stan_logo/print/logo.png" inkscape:export-ydpi="90" fill="#2384A3" visibility="visible"></path><path visibility="visible" sodipodi:nodetypes="cczcczc" inkscape:export-xdpi="90" id="path3978" d="M207.949371,177.226868 c6.684,-17.082 26.875,-61.807 26.875,-61.807 c14.482,-23.767 78.581,-40.759 123.302,-53.117 c44.721,-12.359 125.086,-36.039 146.621,-46.064 c-19.682,24.507 -10.556,86.007 -10.556,86.007 c-16.709,2.229 -167.806,33.305 -194.644,39.357 C272.710236,147.657883 218.718384,158.659836 207.949371,177.226868 L207.949371,177.226868  z " inkscape:export-filename="/Users/Betancourt/Documents/Research/Code/Visualizations/stan_logo/print/logo.png" inkscape:export-ydpi="90" fill="#FFFFFF" inkscape:connector-curvature="0"></path><path inkscape:connector-curvature="0" sodipodi:nodetypes="czcczc" inkscape:export-xdpi="90" id="path3980" d="M93.886383,335.884674 c15.224,-12.996 94.896,-36.834 142.958,-49.387 c48.062,-12.551 130.333,-33.787 142.215,-60.523 c-3.342,9.283 -14.481,34.162 -14.481,34.162 c-15.224,14.852 -84.408,31.334 -129.961,40.102 C189.062378,309.005646 123.220398,322.146637 93.886383,335.884674  z " inkscape:export-filename="/Users/Betancourt/Documents/Research/Code/Visualizations/stan_logo/print/logo.png" inkscape:export-ydpi="90" fill="#FFFFFF" visibility="visible"></path></g></svg>